<svg width="120" height="40" viewBox="0 0 120 40" fill="none" xmlns="http://www.w3.org/2000/svg">
<path d="M60.7757 39.9753C59.0162 39.9753 57.487 39.5966 56.188 38.8393C54.9054 38.0655 53.9023 36.9871 53.1788 35.6042C52.4718 34.2048 52.1183 32.5584 52.1183 30.6651C52.1183 28.7882 52.48 27.1501 53.2035 25.7507C53.9435 24.3513 54.9794 23.2647 56.3113 22.4909C57.6432 21.7171 59.1807 21.3302 60.9237 21.3302C62.3542 21.3302 63.6368 21.5936 64.7714 22.1204C65.906 22.6473 66.8433 23.3882 67.5832 24.343C68.3232 25.2815 68.7918 26.401 68.9892 27.7016H65.6594C65.3469 26.648 64.7632 25.833 63.9081 25.2568C63.0695 24.6641 62.0418 24.3677 60.825 24.3677C59.7397 24.3677 58.786 24.6229 57.9639 25.1333C57.1581 25.6437 56.5333 26.3681 56.0893 27.3065C55.6454 28.2449 55.4234 29.3645 55.4234 30.6651C55.4234 31.9163 55.6454 33.0194 56.0893 33.9743C56.5333 34.9127 57.1581 35.6454 57.9639 36.1722C58.786 36.6826 59.7397 36.9378 60.825 36.9378C62.0583 36.9378 63.1106 36.6414 63.9821 36.0487C64.8701 35.456 65.462 34.6575 65.758 33.6533H69.0385C68.8083 34.9045 68.3067 36.0076 67.5339 36.9625C66.7775 37.9174 65.8156 38.6582 64.6481 39.1851C63.4971 39.7119 62.2063 39.9753 60.7757 39.9753Z" fill="#F5F5F7"/>
<path d="M74.3652 39.679H71.3547L71.3894 18.3287H74.2798L74.3652 39.679Z" fill="#F5F5F7"/>
<path d="M100.163 27.4794H103.172V39.679H100.385L100.163 38.0491C99.8008 38.6253 99.2581 39.0945 98.5346 39.4567C97.8111 39.8189 97.0383 40 96.2161 40C94.8184 40 93.7249 39.5555 92.9357 38.6664C92.1464 37.7774 91.7517 36.592 91.7517 35.1103V27.4794H94.7609V34.0484C94.7609 35.2008 94.9829 36.0323 95.4268 36.5426C95.8708 37.053 96.5121 37.3082 97.3507 37.3082C98.3044 37.3082 99.0115 37.0283 99.4719 36.4685C99.9323 35.8923 100.163 35.028 100.163 33.8755V27.4794Z" fill="#F5F5F7"/>
<path d="M111.046 40C109.862 40 108.842 39.7366 107.987 39.2097C107.149 38.6664 106.491 37.9174 106.014 36.9625C105.554 36.0076 105.324 34.8963 105.324 33.6286C105.324 32.3609 105.554 31.2413 106.014 30.27C106.491 29.2822 107.173 28.5084 108.061 27.9486C108.949 27.3888 110.002 27.1089 111.218 27.1089C112.074 27.1089 112.855 27.2818 113.562 27.6275C114.269 27.9568 114.811 28.426 115.19 29.0352V21.3055H118.174V39.679H115.412L115.214 37.7774C114.852 38.4689 114.293 39.0122 113.537 39.4073C112.797 39.8024 111.967 40 111.046 40ZM111.712 37.2341C112.419 37.2341 113.027 37.0859 113.537 36.7896C114.047 36.4768 114.441 36.0405 114.721 35.4807C115.017 34.9045 115.165 34.2542 115.165 33.5298C115.165 32.7889 115.017 32.1468 114.721 31.6035C114.441 31.0438 114.047 30.6075 113.537 30.2947C113.027 29.9654 112.419 29.8008 111.712 29.8008C111.021 29.8008 110.421 29.9654 109.911 30.2947C109.401 30.6075 109.007 31.0438 108.727 31.6035C108.464 32.1633 108.333 32.8054 108.333 33.5298C108.333 34.2542 108.464 34.8963 108.727 35.456C109.007 36.0158 109.401 36.4521 109.911 36.7649C110.421 37.0777 111.021 37.2341 111.712 37.2341Z" fill="#F5F5F7"/>
<path d="M4.9833 18.2747H1.82617V0.22226H4.9833V7.705H12.9748V0.22226H16.1319V18.2747H12.9748V10.6191H4.9833V18.2747Z" fill="#F5F5F7"/>
<path d="M21.4648 6.07509L25.4359 17.3362L23.808 20.4232L18.283 6.07509H21.4648ZM18.6036 23.9299V21.4357H20.4042C20.7988 21.4357 21.1441 21.3863 21.4401 21.2875C21.7361 21.2052 21.9992 21.0406 22.2294 20.7936C22.476 20.5467 22.6816 20.1845 22.846 19.707L27.9024 6.07509H31.0101L25.0412 20.9912C24.5972 22.1107 24.0382 22.9257 23.364 23.436C22.6898 23.9464 21.8512 24.2016 20.8481 24.2016C20.4206 24.2016 20.0178 24.1769 19.6396 24.1275C19.2778 24.0946 18.9325 24.0287 18.6036 23.9299Z" fill="#F5F5F7"/>
<path d="M32.7194 23.9299V6.07509H35.5065L35.7038 7.92726C36.0656 7.21932 36.6247 6.67602 37.3811 6.29735C38.1375 5.90223 38.9679 5.70466 39.8722 5.70466C41.0397 5.70466 42.0428 5.96808 42.8814 6.49492C43.7364 7.02176 44.4024 7.75439 44.8792 8.69282C45.3561 9.63125 45.5945 10.7425 45.5945 12.0267C45.5945 13.2944 45.3726 14.4222 44.9286 15.41C44.4846 16.3978 43.8351 17.1798 42.98 17.7561C42.1414 18.3158 41.1137 18.5957 39.8969 18.5957C38.9925 18.5957 38.1621 18.4228 37.4057 18.0771C36.6658 17.7314 36.1067 17.2539 35.7285 16.6448V23.9299H32.7194ZM35.7532 12.1749C35.7532 12.8993 35.8929 13.5414 36.1725 14.1011C36.452 14.6609 36.8467 15.1054 37.3564 15.4347C37.8826 15.7475 38.491 15.9039 39.1816 15.9039C39.8887 15.9039 40.4971 15.7475 41.0068 15.4347C41.5166 15.1054 41.903 14.6609 42.1661 14.1011C42.4292 13.5414 42.5607 12.8993 42.5607 12.1749C42.5607 11.4505 42.4292 10.8084 42.1661 10.2486C41.903 9.68887 41.5166 9.25258 41.0068 8.93977C40.4971 8.6105 39.8887 8.44586 39.1816 8.44586C38.491 8.44586 37.8826 8.60227 37.3564 8.91508C36.8467 9.22789 36.452 9.66417 36.1725 10.2239C35.8929 10.7837 35.7532 11.434 35.7532 12.1749Z" fill="#F5F5F7"/>
<path d="M53.4415 18.5957C52.2411 18.5957 51.1723 18.3241 50.235 17.7808C49.3142 17.221 48.5907 16.4637 48.0645 15.5088C47.5383 14.5374 47.2752 13.4261 47.2752 12.1749C47.2752 10.9072 47.5301 9.78765 48.0398 8.81629C48.5496 7.84494 49.2649 7.08761 50.1857 6.54431C51.1065 5.98454 52.1589 5.70466 53.3428 5.70466C54.5761 5.70466 55.6367 5.96808 56.5246 6.49492C57.4126 7.00529 58.095 7.72146 58.5718 8.64342C59.0651 9.56539 59.3118 10.6685 59.3118 11.9526V12.8664L48.8538 12.8911L48.9031 10.9648H56.3273C56.3273 10.1252 56.056 9.45015 55.5134 8.93977C54.9872 8.4294 54.2719 8.17421 53.3675 8.17421C52.6604 8.17421 52.0603 8.32239 51.567 8.61873C51.0901 8.91508 50.7283 9.3596 50.4817 9.95229C50.235 10.545 50.1117 11.2694 50.1117 12.1255C50.1117 13.4426 50.3912 14.4386 50.9503 15.1136C51.5258 15.7887 52.3727 16.1262 53.4908 16.1262C54.313 16.1262 54.9872 15.9698 55.5134 15.657C56.056 15.3441 56.4095 14.8996 56.574 14.3234H59.3611C59.098 15.6569 58.4403 16.7024 57.3879 17.4597C56.352 18.2171 55.0365 18.5957 53.4415 18.5957Z" fill="#F5F5F7"/>
<path d="M69.3663 6.0257V8.81629H68.2563C67.1546 8.81629 66.2914 9.11264 65.6665 9.70533C65.0417 10.2816 64.7292 11.1624 64.7292 12.3478V18.2747H61.7201V6.09979H64.5566L64.8032 8.61873H64.5073C64.6717 7.81201 65.0581 7.15347 65.6665 6.64309C66.2749 6.13272 67.0642 5.87753 68.0344 5.87753C68.2481 5.87753 68.4619 5.88576 68.6756 5.90223C68.8894 5.91869 69.1196 5.95985 69.3663 6.0257Z" fill="#F5F5F7"/>
<path d="M71.3894 18.3287L71.4031 6.07509H74.4122L74.2798 18.3287H71.3894ZM72.883 3.63024C72.3732 3.63024 71.9375 3.45737 71.5757 3.11163C71.2304 2.74943 71.0578 2.31314 71.0578 1.80277C71.0578 1.2924 71.2304 0.864342 71.5757 0.518605C71.9375 0.172868 72.3732 0 72.883 0C73.3927 0 73.8202 0.172868 74.1656 0.518605C74.5273 0.864342 74.7082 1.2924 74.7082 1.80277C74.7082 2.31314 74.5273 2.74943 74.1656 3.11163C73.8202 3.45737 73.3927 3.63024 72.883 3.63024Z" fill="#F5F5F7"/>
<path d="M95.2234 18.2747H92.2142V6.07509H95.0014L95.248 7.65561C95.6262 7.04645 96.1606 6.56901 96.8512 6.22327C97.5583 5.87753 98.3229 5.70466 99.1451 5.70466C100.674 5.70466 101.825 6.15741 102.598 7.06291C103.388 7.96842 103.782 9.20319 103.782 10.7672V18.2747H100.773V11.4834C100.773 10.4627 100.543 9.70533 100.082 9.21142C99.622 8.70105 98.9971 8.44586 98.2078 8.44586C97.2706 8.44586 96.5388 8.74221 96.0126 9.3349C95.4864 9.92759 95.2234 10.7178 95.2234 11.7057V18.2747Z" fill="#F5F5F7"/>
<path fill-rule="evenodd" clip-rule="evenodd" d="M83.0867 6.1085C79.7344 6.1085 77.0168 8.82945 77.0168 12.1859V33.7945C77.0168 37.1509 79.7344 39.8719 83.0867 39.8719C86.439 39.8719 89.1566 37.1509 89.1566 33.7945V12.1859C89.1566 8.82945 86.439 6.1085 83.0867 6.1085ZM86.4589 12.1859V33.7945C86.4589 35.6592 84.9491 37.1708 83.0867 37.1708C81.2243 37.1708 79.7145 35.6592 79.7145 33.7945V12.1859C79.7145 10.3212 81.2243 8.80957 83.0867 8.80957C84.9491 8.80957 86.4589 10.3212 86.4589 12.1859Z" fill="#F5F5F7"/>
</svg>